<?xml version="1.0" encoding="utf-8"?>
<!-- Generator: Adobe Illustrator 21.0.0, SVG Export Plug-In . SVG Version: 6.00 Build 0)  -->
<svg version="1.1" id="Layer_1" xmlns="http://www.w3.org/2000/svg" xmlns:xlink="http://www.w3.org/1999/xlink" x="0px" y="0px"
	 viewBox="0 0 30.2 31.3" style="enable-background:new 0 0 30.2 31.3;" xml:space="preserve">
<style type="text/css">
	.st0{fill:#A7BAC3;}
</style>
<path class="st0" d="M7,10.4H6.1c-1.2,0-2.2-1-2.2-2.2V2.2C3.9,1,4.9,0,6.1,0L7,0c1.2,0,2.2,1,2.2,2.2v6.1C9.1,9.4,8.1,10.4,7,10.4z
	"/>
<path class="st0" d="M24.2,10.4h-0.9c-1.2,0-2.2-1-2.2-2.2V2.2c0-1.2,1-2.2,2.2-2.2l0.9,0c1.2,0,2.2,1,2.2,2.2v6.1
	C26.4,9.4,25.4,10.4,24.2,10.4z"/>
<path class="st0" d="M27.2,3.4v5.9c0,1.2-1,2.2-2.2,2.2h-2.8c-1.2,0-2.2-1-2.2-2.2V3.4h-10v5.9c0,1.2-1,2.2-2.2,2.2H5.1
	c-1.2,0-2.2-1-2.2-2.2V3.4c-1.6,0-3,1.4-3,3v22c0,1.7,1.3,3,3,3h24.2c1.7,0,3-1.3,3-3v-22C30.2,4.7,28.8,3.4,27.2,3.4z M27.2,28.5
	H2.8V14.5h24.4V28.5z"/>
<path class="st0" d="M9.5,20.6h-2c-0.6,0-1-0.4-1-1v-2c0-0.6,0.4-1,1-1h2c0.6,0,1,0.4,1,1v2C10.5,20.2,10.1,20.6,9.5,20.6z"/>
<path class="st0" d="M16.1,20.6h-2c-0.6,0-1-0.4-1-1v-2c0-0.6,0.4-1,1-1h2c0.6,0,1,0.4,1,1v2C17.1,20.2,16.6,20.6,16.1,20.6z"/>
<path class="st0" d="M22.8,20.6h-2c-0.6,0-1-0.4-1-1v-2c0-0.6,0.4-1,1-1h2c0.6,0,1,0.4,1,1v2C23.8,20.2,23.3,20.6,22.8,20.6z"/>
<path class="st0" d="M9.5,27h-2c-0.6,0-1-0.4-1-1v-2c0-0.6,0.4-1,1-1h2c0.6,0,1,0.4,1,1v2C10.5,26.5,10.1,27,9.5,27z"/>
<path class="st0" d="M16.1,27h-2c-0.6,0-1-0.4-1-1v-2c0-0.6,0.4-1,1-1h2c0.6,0,1,0.4,1,1v2C17.1,26.5,16.6,27,16.1,27z"/>
<path class="st0" d="M22.8,27h-2c-0.6,0-1-0.4-1-1v-2c0-0.6,0.4-1,1-1h2c0.6,0,1,0.4,1,1v2C23.8,26.5,23.3,27,22.8,27z"/>
</svg>
